# xmcd
#
# Track frame offsets: 
#        150
#        13855
#        24055
#        37540
#        51695
#        66420
#        84402
#        99422
#        114380
#        127550
#        143927
#        162800
#        177705
#
# Disc length: 2634 seconds
#
# Revision: 2
# Processed by: cddbd v1.5.2PL0 Copyright (c) Steve Scherf et al.
# Submitted via: ExactAudioCopy v1.0b3
#
DISCID=a00a480d
DTITLE=Henning Pertiet - Boogie Woogie
DYEAR=1996
DGENRE=Blues
TTITLE0=Down in the Alley
TTITLE1=Miller's Jive
TTITLE2=Easy Goin'
TTITLE3=Flower Pants
TTITLE4=George and Hersal Thomas - The Fives
TTITLE5=Good Night Son, Sleep Well
TTITLE6=Headin' Home
TTITLE7=Northern Memories
TTITLE8=Ahrensburg Blues
TTITLE9=Butterfly Blues
TTITLE10=17. Februar Struggle
TTITLE11=Get In The Groove, Boys!
TTITLE12=Leroy Carr - How Long Blues
EXTD=
EXTT0=
EXTT1=
EXTT2=
EXTT3=
EXTT4=
EXTT5=
EXTT6=
EXTT7=
EXTT8=
EXTT9=
EXTT10=
EXTT11=
EXTT12=
PLAYORDER=
